<svg aria-hidden="true" style="width:0;height:0;position:absolute;overflow:hidden" xmlns="http://www.w3.org/2000/svg"><defs><symbol id="icon-untitled" viewBox="0 0 34 32"><path d="M17.184 14.109c1.613-4.366-1.727-6.756-3.942-8.327-.423-.321-.847-.621-1.19-.895A4.161 4.161 0 0 1 10.718.576a.447.447 0 0 0-.132-.455.463.463 0 0 0-.466-.094 7.478 7.478 0 0 0-2.054 1.22 4.857 4.857 0 0 0-1.901 3.846 5.639 5.639 0 0 0-1.097 1.144 4.193 4.193 0 0 0-.809 2.681 5.3 5.3 0 0 0-1.613 4.987 1.433 1.433 0 0 0 .753 2.664h.03v2.483a.947.947 0 0 0 .953.95h.741l1.207 10.43a.952.952 0 0 0 .944.845h5.022a.96.96 0 0 0 .948-.844l1.207-10.43h.741a.947.947 0 0 0 .953-.95V16.57h.03a1.447 1.447 0 0 0 1.337-1.996 1.411 1.411 0 0 0-.316-.47l-.013.004zM6.315 6.188c.61 2.284 2.964 3.184 5.111 3.986a.463.463 0 0 0 .645-.617.467.467 0 0 0-.319-.227C9.44 8.456 7.26 7.641 7.095 5.306c-.039-.642.082-1.283.352-1.867s.68-1.093 1.194-1.481a6.874 6.874 0 0 1 1.033-.709 5.362 5.362 0 0 0 0 .878 4.994 4.994 0 0 0 1.786 3.476c.351.3.788.608 1.27.937 1.114.798 2.38 1.689 3.184 2.897a4.512 4.512 0 0 1 .462 4.285h-1.871c-3.857 0-8.29-1.064-9.167-4.045a3.414 3.414 0 0 1 .999-3.466l-.021-.021zm3.472 14.394 1.414 1.41-1.414 1.41-1.414-1.419 1.414-1.402zm3.243 3.704-1.169 1.165-1.414-1.41 1.414-1.406 1.228 1.22-.059.431zM9.787 27.52l-1.414-1.41 1.414-1.41 1.414 1.41-1.414 1.41zm-.648-3.471-1.414 1.41-1.177-1.174-.051-.422 1.228-1.22 1.414 1.406zM7.073 26.11l-.284.283-.072-.642.356.359zm-.148 1.444.8-.798 1.554 1.562a.72.72 0 0 0 .03.093H7.023l-.097-.857zm4.928-.798.8.798-.097.845h-2.35l1.647-1.643zm.932-.363-.284-.283.36-.359-.076.642zm.423-3.691-.707-.718.898-.895-.191 1.613zm-1.359-1.36-1.342-1.334h2.684l-1.342 1.334zm-4.128 0-1.342-1.334h2.684l-1.342 1.334zm4.572 9.02H7.276c-.008-.001-.015-.004-.02-.01s-.009-.012-.01-.02l-.119-1.013h5.318l-.114 1.013c-.001.008-.005.016-.011.021s-.014.008-.023.008h-.004zm3.883-14.711h-1.474a.47.47 0 0 0-.355.117.46.46 0 0 0 .355.797h.525v2.483c-.001.008-.005.016-.011.021s-.014.008-.023.008H4.366c-.008 0-.016-.003-.023-.008s-.01-.013-.011-.021v-2.483h8.388a.46.46 0 0 0 0-.916H3.405a.516.516 0 0 1-.527-.31.53.53 0 0 1 0-.422.533.533 0 0 1 .312-.285.506.506 0 0 1 .215-.025h.961a.46.46 0 0 0 0-.916h-.847a4.51 4.51 0 0 1 .923-3.674c.296.921 1.059 2.179 2.964 3.18 1.791.933 4.162 1.41 7.046 1.41h1.694a.516.516 0 0 1 .527.31.526.526 0 0 1 0 .422.533.533 0 0 1-.312.285.506.506 0 0 1-.215.025h.03zM19.859 28.392l-.342.525.007.004.335-.529zm3.682.177.626-.014-.016-.725-.715.121.105.617zm.043 1.926.159.606.478-.126-.011-.494-.626.014zm-4.832.092.141-.61-.004-.001-.137.611zm-2.385-1.064.405-.478-.001-.001-.404.478zm-.862-1.957.626.003v-.003h-.626zm.299-1.37-.562-.276v.001l.562.276zm1.921-1.639.222.586.002-.001-.224-.585zm6.152-.159.624.049.041-.529-.515-.128-.151.608zm-.153 1.963-.117.615.687.13.054-.697-.624-.049zm-1.67-.804c-.94 0-1.73.1-2.307.354-.296.13-.565.313-.761.571a1.474 1.474 0 0 0-.298.905h1.252c0-.073.018-.114.044-.149.032-.043.106-.111.267-.182.336-.148.916-.248 1.803-.248v-1.252zm-3.366 1.832c0 .644.289 1.176.829 1.528l.684-1.049a.508.508 0 0 1-.26-.478h-1.252zm.836 1.532c.512.324 1.186.446 1.944.446v-1.253c-.654 0-1.051-.111-1.273-.251l-.67 1.058zm1.943.445c.743 0 1.469-.06 2.178-.18l-.21-1.235c-.637.108-1.293.162-1.968.162v1.253zm1.448-.783.043 1.926 1.252-.028-.043-1.926-1.252.028zm.509 1.307a9.327 9.327 0 0 1-2.373.285v1.252c.96 0 1.858-.107 2.691-.326l-.319-1.211zm-2.372.285c-.885 0-1.601-.07-2.159-.198l-.281 1.221c.681.157 1.498.23 2.44.23v-1.252zm-2.163-.199c-.598-.134-1.029-.276-1.317-.416l-.55 1.125c.413.202.952.37 1.594.513l.273-1.222zm-1.318-.416a3.813 3.813 0 0 1-.799-.514l-.81.955c.313.265.667.493 1.06.685l.55-1.125zm-.8-.515c-.426-.36-.644-.83-.64-1.476l-1.252-.006c-.005.985.352 1.82 1.084 2.438l.809-.957zm-.64-1.479c0-.421.083-.782.236-1.094l-1.125-.551a3.701 3.701 0 0 0-.364 1.645h1.252zm.235-1.094c.285-.579.788-1.029 1.581-1.33l-.444-1.171c-1.034.392-1.811 1.035-2.26 1.948l1.124.553zm1.583-1.33c.833-.32 1.763-.484 2.797-.484v-1.253c-1.168 0-2.252.186-3.246.568l.449 1.169zm2.797-.485c1.054 0 2.047.117 2.981.348l.301-1.216a13.586 13.586 0 0 0-3.282-.385v1.253zm2.507-.308-.153 1.963 1.249.097.153-1.963-1.249-.097zm.588 1.397a9.646 9.646 0 0 0-1.786-.188v1.252c.441 0 .957.053 1.553.166l.233-1.231zm6.11 1-.003.626.636.004-.007-.636-.626.007zm-.269-.813-.426.459.005.005.421-.464zm-1.559.061.434.452.005-.004-.438-.447zm-.38.74-.618-.102-.119.724.733.004.003-.626zm4.606 3.339.378.499.225-.171.021-.282-.624-.047zm-1.352.502-.135-.612-.004.001.138.611zm-4.697-.171-.214.589.005.002.208-.59zm-1.07-.569-.389.491.008.006.381-.497zm-.716-.899-.561.278.001.003.56-.28zm.734-3.798.416.468-.417-.467zm5.725-.679.25-.574-.006-.003-.245.576zm1.437 1.321-.563.274.002.003.562-.277zm.244 1.095.625.045.002-.023v-.023h-.626zm-.073 1.009-.003.626.585.003.042-.584-.625-.045zm-4.96-.025.003-.626-.817-.004.208.79.606-.16zm.71.875-.308.545.003.001.306-.547zm3.803-.214v-.626h-.125l-.116.048.241.578zm.331 0 .624.047.05-.673h-.675v.626zm-1.888-1.78c-.005-.453-.109-.939-.475-1.271l-.841.928c-.007-.007.007.001.025.055.019.057.037.153.039.301l1.252-.013zm-.469-1.266c-.329-.305-.76-.406-1.184-.406v1.252c.244 0 .318.058.332.071l.852-.918zm-1.184-.406c-.466 0-.9.146-1.239.479l.877.895c.068-.067.169-.121.363-.121v-1.252zm-1.235.474a1.91 1.91 0 0 0-.563 1.09l1.236.203a.666.666 0 0 1 .195-.39l-.867-.904zm.051 1.818 2.208.012.007-1.253-2.208-.012-.007 1.253zm4.23 2.214c-.137.104-.472.249-1.108.389l.269 1.223c.661-.145 1.227-.335 1.595-.614l-.757-.998zm-1.111.39a7.946 7.946 0 0 1-1.752.205v1.252c.662 0 1.338-.079 2.028-.236l-.277-1.222zm-1.752.205c-.59 0-1.076-.028-1.464-.08l-.167 1.241c.461.062 1.006.091 1.631.091v-1.252zm-1.464-.08a5.672 5.672 0 0 1-1.135-.276l-.417 1.181c.455.161.917.273 1.385.336l.167-1.241zm-1.129-.274a3.363 3.363 0 0 1-.903-.477l-.762.994c.357.274.772.492 1.238.661l.427-1.177zm-.895-.471a1.987 1.987 0 0 1-.544-.688l-1.12.56c.221.441.515.815.887 1.11l.777-.982zm-.543-.686c-.132-.266-.21-.609-.21-1.05h-1.253c0 .587.105 1.129.34 1.605l1.123-.555zm-.211-1.049c0-.441.079-.83.23-1.176l-1.149-.499a4.163 4.163 0 0 0-.333 1.674h1.253zm.23-1.176c.158-.364.351-.633.57-.827l-.833-.935a3.56 3.56 0 0 0-.886 1.264l1.149.499zm.57-.828c.673-.6 1.7-.948 3.179-.948v-1.253c-1.66 0-3.031.39-4.013 1.266l.834.935zm3.179-.948c.664 0 1.29.126 1.884.378l.489-1.153a6.018 6.018 0 0 0-2.373-.478v1.253zm1.878.376c.554.242.912.585 1.124 1.021l1.126-.548c-.359-.738-.959-1.276-1.75-1.621l-.501 1.148zm1.126 1.024c.117.237.18.506.18.817h1.252c0-.487-.1-.948-.309-1.372l-1.123.555zm.182.772-.073 1.009 1.249.091.073-1.009-1.249-.091zm.554.429-4.96-.024-.006 1.252 4.96.024.006-1.252zm-5.569.761c.146.555.505.976 1.007 1.26l.616-1.09c-.248-.14-.363-.302-.412-.489l-1.211.319zm1.01 1.262c.508.284 1.143.398 1.853.398v-1.252c-.595 0-.991-.098-1.242-.238l-.611 1.093zm1.853.397c.762 0 1.598-.206 2.497-.58l-.481-1.156c-.805.335-1.473.484-2.016.484v1.252zm2.256-.532h.33v-1.252h-.33v1.252zm-.294-.673-.116 1.553 1.249.093.116-1.553-1.249-.093z"/></symbol><symbol id="icon-eva_menu-fill" viewBox="0 0 32 32"><path d="M26.733 14H5.266c-.7 0-1.267.425-1.267.95v.1c0 .525.567.95 1.267.95h21.467c.7 0 1.267-.425 1.267-.95v-.1c0-.525-.567-.95-1.267-.95zM26.733 20H5.266c-.7 0-1.267.425-1.267.95v.1c0 .525.567.95 1.267.95h21.467c.7 0 1.267-.425 1.267-.95v-.1c0-.525-.567-.95-1.267-.95zM26.733 8H5.266c-.7 0-1.267.425-1.267.95v.1c0 .525.567.95 1.267.95h21.467c.7 0 1.267-.425 1.267-.95v-.1c0-.525-.567-.95-1.267-.95z"/></symbol><symbol id="icon-kropki-2" viewBox="0 0 101 32"><path fill="#f8d24e" style="fill:var(--color1,#f8d24e)" d="M83.002 16.522c.208 1.449-.723 2.803-2.078 3.025s-2.623-.772-2.831-2.221c-.208-1.449.723-2.803 2.078-3.025s2.623.772 2.831 2.221zM87.819 12.152c.208 1.449-.723 2.803-2.078 3.025s-2.623-.772-2.831-2.221c-.208-1.449.723-2.803 2.078-3.025s2.623.772 2.831 2.221zM93.392 7.212c.208 1.449-.723 2.803-2.078 3.025s-2.623-.772-2.831-2.221c-.208-1.449.723-2.803 2.078-3.025s2.623.772 2.831 2.221zM98.618 2.776c.208 1.449-.723 2.803-2.078 3.025s-2.623-.772-2.831-2.221c-.208-1.449.723-2.803 2.078-3.025s2.623.772 2.831 2.221zM5.12 16.519c0 1.466-1.146 2.654-2.56 2.654S0 17.985 0 16.519s1.146-2.654 2.56-2.654 2.56 1.188 2.56 2.654zM10.665 12.98c0 1.466-1.146 2.654-2.56 2.654s-2.56-1.188-2.56-2.654 1.146-2.654 2.56-2.654 2.56 1.188 2.56 2.654zM17.066 8.999c0 1.466-1.146 2.654-2.56 2.654s-2.56-1.188-2.56-2.654 1.146-2.654 2.56-2.654 2.56 1.188 2.56 2.654zM23.038 5.46c0 1.466-1.146 2.654-2.56 2.654s-2.56-1.188-2.56-2.654 1.146-2.654 2.56-2.654 2.56 1.188 2.56 2.654zM7.68 23.153c0 1.466-1.146 2.654-2.56 2.654s-2.56-1.188-2.56-2.654 1.146-2.654 2.56-2.654 2.56 1.188 2.56 2.654zM13.226 19.615c0 1.466-1.146 2.654-2.56 2.654s-2.56-1.188-2.56-2.654 1.146-2.654 2.56-2.654 2.56 1.188 2.56 2.654zM19.627 15.634c0 1.466-1.146 2.654-2.56 2.654s-2.56-1.188-2.56-2.654 1.146-2.654 2.56-2.654 2.56 1.188 2.56 2.654zM25.598 12.095c0 1.466-1.146 2.654-2.56 2.654s-2.56-1.188-2.56-2.654 1.146-2.654 2.56-2.654 2.56 1.188 2.56 2.654zM14.078 26.692c0 1.466-1.146 2.654-2.56 2.654s-2.56-1.188-2.56-2.654 1.146-2.654 2.56-2.654 2.56 1.188 2.56 2.654zM19.625 23.153c0 1.466-1.146 2.654-2.56 2.654s-2.56-1.188-2.56-2.654 1.146-2.654 2.56-2.654 2.56 1.188 2.56 2.654zM26.024 19.172c0 1.466-1.146 2.654-2.56 2.654s-2.56-1.188-2.56-2.654 1.146-2.654 2.56-2.654 2.56 1.188 2.56 2.654zM31.996 15.634c0 1.466-1.146 2.654-2.56 2.654s-2.56-1.188-2.56-2.654 1.146-2.654 2.56-2.654 2.56 1.188 2.56 2.654zM21.33 28.904c0 1.466-1.146 2.654-2.56 2.654s-2.56-1.188-2.56-2.654 1.146-2.654 2.56-2.654 2.56 1.188 2.56 2.654zM26.876 25.365c0 1.466-1.146 2.654-2.56 2.654s-2.56-1.188-2.56-2.654 1.146-2.654 2.56-2.654 2.56 1.188 2.56 2.654zM33.278 21.384c0 1.466-1.146 2.654-2.56 2.654s-2.56-1.188-2.56-2.654 1.146-2.654 2.56-2.654 2.56 1.188 2.56 2.654zM39.248 17.846c0 1.466-1.146 2.654-2.56 2.654s-2.56-1.188-2.56-2.654 1.146-2.654 2.56-2.654 2.56 1.188 2.56 2.654z"/><path fill="#f8d24e" style="fill:var(--color1,#f8d24e)" d="M30.717 29.346c0 1.466-1.146 2.654-2.56 2.654s-2.56-1.188-2.56-2.654 1.146-2.654 2.56-2.654 2.56 1.188 2.56 2.654zM36.263 25.808c0 1.466-1.146 2.654-2.56 2.654s-2.56-1.188-2.56-2.654 1.146-2.654 2.56-2.654 2.56 1.188 2.56 2.654zM42.664 21.827c0 1.466-1.146 2.654-2.56 2.654s-2.56-1.188-2.56-2.654 1.146-2.654 2.56-2.654 2.56 1.188 2.56 2.654zM48.635 18.288c0 1.466-1.146 2.654-2.56 2.654s-2.56-1.188-2.56-2.654 1.146-2.654 2.56-2.654 2.56 1.188 2.56 2.654zM41.811 29.346c0 1.466-1.146 2.654-2.56 2.654s-2.56-1.188-2.56-2.654 1.146-2.654 2.56-2.654 2.56 1.188 2.56 2.654zM47.356 25.808c0 1.466-1.146 2.654-2.56 2.654s-2.56-1.188-2.56-2.654 1.146-2.654 2.56-2.654 2.56 1.188 2.56 2.654zM53.756 21.826c0 1.466-1.146 2.654-2.56 2.654s-2.56-1.188-2.56-2.654 1.146-2.654 2.56-2.654 2.56 1.188 2.56 2.654zM59.729 18.288c0 1.466-1.146 2.654-2.56 2.654s-2.56-1.188-2.56-2.654 1.146-2.654 2.56-2.654 2.56 1.188 2.56 2.654z"/><path fill="#f8d24e" style="fill:var(--color1,#f8d24e)" d="M51.194 28.904c0 1.466-1.146 2.654-2.56 2.654s-2.56-1.188-2.56-2.654 1.146-2.654 2.56-2.654 2.56 1.188 2.56 2.654zM56.74 25.365c0 1.466-1.146 2.654-2.56 2.654s-2.56-1.188-2.56-2.654 1.146-2.654 2.56-2.654 2.56 1.188 2.56 2.654zM63.141 21.384c0 1.466-1.146 2.654-2.56 2.654s-2.56-1.188-2.56-2.654 1.146-2.654 2.56-2.654 2.56 1.188 2.56 2.654zM69.112 17.846c0 1.466-1.146 2.654-2.56 2.654s-2.56-1.188-2.56-2.654 1.146-2.654 2.56-2.654 2.56 1.188 2.56 2.654zM61.859 28.461c0 1.466-1.146 2.654-2.56 2.654s-2.56-1.188-2.56-2.654 1.146-2.654 2.56-2.654 2.56 1.188 2.56 2.654zM67.405 24.923c0 1.466-1.146 2.654-2.56 2.654s-2.56-1.188-2.56-2.654 1.146-2.654 2.56-2.654 2.56 1.188 2.56 2.654zM73.806 20.942c0 1.466-1.146 2.654-2.56 2.654s-2.56-1.188-2.56-2.654 1.146-2.654 2.56-2.654 2.56 1.188 2.56 2.654zM79.778 17.403c0 1.466-1.146 2.654-2.56 2.654s-2.56-1.188-2.56-2.654 1.146-2.654 2.56-2.654 2.56 1.188 2.56 2.654z"/><path fill="#f8d24e" style="fill:var(--color1,#f8d24e)" d="M71.672 16.961c0 1.466-1.146 2.654-2.56 2.654s-2.56-1.188-2.56-2.654 1.146-2.654 2.56-2.654 2.56 1.188 2.56 2.654zM77.218 13.422c0 1.466-1.146 2.654-2.56 2.654s-2.56-1.188-2.56-2.654 1.146-2.654 2.56-2.654 2.56 1.188 2.56 2.654zM83.618 9.442c0 1.466-1.146 2.654-2.56 2.654s-2.56-1.188-2.56-2.654 1.146-2.654 2.56-2.654 2.56 1.188 2.56 2.654zM89.59 5.903c0 1.466-1.146 2.654-2.56 2.654s-2.56-1.188-2.56-2.654 1.146-2.654 2.56-2.654 2.56 1.188 2.56 2.654z"/></symbol><symbol id="icon-Group-124" viewBox="0 0 81 32"><path fill="#f8d24e" style="fill:var(--color1,#f8d24e)" d="M33.02 29.616c0 .982-.745 1.778-1.664 1.778s-1.664-.796-1.664-1.778.745-1.778 1.664-1.778 1.664.796 1.664 1.778zM36.626 27.245c0 .982-.745 1.778-1.664 1.778s-1.664-.796-1.664-1.778.745-1.778 1.664-1.778 1.664.796 1.664 1.778zM40.785 24.578c0 .982-.745 1.778-1.664 1.778s-1.664-.796-1.664-1.778.745-1.778 1.664-1.778 1.664.796 1.664 1.778zM44.669 22.206c0 .982-.745 1.778-1.664 1.778s-1.664-.796-1.664-1.778.745-1.778 1.664-1.778 1.664.796 1.664 1.778zM42.449 28.431c0 .982-.745 1.778-1.664 1.778s-1.664-.796-1.664-1.778.745-1.778 1.664-1.778 1.664.796 1.664 1.778zM46.055 26.06c0 .982-.745 1.778-1.664 1.778s-1.664-.796-1.664-1.778.745-1.778 1.664-1.778 1.664.796 1.664 1.778zM50.215 23.392c0 .982-.745 1.778-1.664 1.778s-1.664-.796-1.664-1.778.745-1.778 1.664-1.778 1.664.796 1.664 1.778zM54.099 21.021c0 .982-.745 1.778-1.664 1.778s-1.664-.796-1.664-1.778.745-1.778 1.664-1.778 1.664.796 1.664 1.778zM50.493 27.542c0 .982-.745 1.778-1.664 1.778s-1.664-.796-1.664-1.778.745-1.778 1.664-1.778 1.664.796 1.664 1.778zM54.099 25.171c0 .982-.745 1.778-1.664 1.778s-1.664-.796-1.664-1.778.745-1.778 1.664-1.778 1.664.796 1.664 1.778zM58.26 22.503c0 .982-.745 1.778-1.664 1.778s-1.664-.796-1.664-1.778.745-1.778 1.664-1.778 1.664.796 1.664 1.778zM62.141 20.132c0 .982-.745 1.778-1.664 1.778s-1.664-.796-1.664-1.778.745-1.778 1.664-1.778 1.664.796 1.664 1.778zM58.258 26.356c0 .982-.745 1.778-1.664 1.778s-1.664-.796-1.664-1.778.745-1.778 1.664-1.778 1.664.796 1.664 1.778zM61.863 23.985c0 .982-.745 1.778-1.664 1.778s-1.664-.796-1.664-1.778.745-1.778 1.664-1.778 1.664.796 1.664 1.778zM66.023 21.318c0 .982-.745 1.778-1.664 1.778s-1.664-.796-1.664-1.778.745-1.778 1.664-1.778 1.664.796 1.664 1.778zM69.907 18.947c0 .982-.745 1.778-1.664 1.778s-1.664-.796-1.664-1.778.745-1.778 1.664-1.778 1.664.796 1.664 1.778zM60.756 29.616c0 .982-.745 1.778-1.664 1.778s-1.664-.796-1.664-1.778.745-1.778 1.664-1.778 1.664.796 1.664 1.778zM64.362 27.245c0 .982-.745 1.778-1.664 1.778s-1.664-.796-1.664-1.778.745-1.778 1.664-1.778 1.664.796 1.664 1.778zM69.354 29.913c0 .982-.745 1.778-1.664 1.778s-1.664-.796-1.664-1.778.745-1.778 1.664-1.778 1.664.796 1.664 1.778zM68.522 24.578c0 .982-.745 1.778-1.664 1.778s-1.664-.796-1.664-1.778.745-1.778 1.664-1.778 1.664.796 1.664 1.778zM73.514 27.245c0 .982-.745 1.778-1.664 1.778s-1.664-.796-1.664-1.778.745-1.778 1.664-1.778 1.664.796 1.664 1.778zM77.398 29.913c0 .982-.745 1.778-1.664 1.778s-1.664-.796-1.664-1.778.745-1.778 1.664-1.778 1.664.796 1.664 1.778zM72.405 22.206c0 .982-.745 1.778-1.664 1.778s-1.664-.796-1.664-1.778.745-1.778 1.664-1.778 1.664.796 1.664 1.778zM77.398 24.874c0 .982-.745 1.778-1.664 1.778s-1.664-.796-1.664-1.778.745-1.778 1.664-1.778 1.664.796 1.664 1.778zM81.281 27.542c0 .982-.745 1.778-1.664 1.778s-1.664-.796-1.664-1.778.745-1.778 1.664-1.778 1.664.796 1.664 1.778zM16.102 10.055c0 .982-.745 1.778-1.664 1.778s-1.664-.796-1.664-1.778.745-1.778 1.664-1.778 1.664.796 1.664 1.778zM19.707 7.684c0 .982-.745 1.778-1.664 1.778s-1.664-.796-1.664-1.778.745-1.778 1.664-1.778 1.664.796 1.664 1.778zM23.868 5.016c0 .982-.745 1.778-1.664 1.778s-1.664-.796-1.664-1.778.745-1.778 1.664-1.778 1.664.796 1.664 1.778zM27.75 2.645c0 .982-.745 1.778-1.664 1.778s-1.664-.796-1.664-1.778.745-1.778 1.664-1.778 1.664.796 1.664 1.778zM9.168 9.758c0 .982-.745 1.778-1.664 1.778S5.84 10.74 5.84 9.758 6.585 7.98 7.504 7.98s1.664.796 1.664 1.778zM12.773 7.387c0 .982-.745 1.778-1.664 1.778s-1.664-.796-1.664-1.778.745-1.778 1.664-1.778 1.664.796 1.664 1.778zM16.933 4.72c0 .982-.745 1.778-1.664 1.778s-1.664-.796-1.664-1.778.745-1.778 1.664-1.778 1.664.796 1.664 1.778zM20.816 2.349c0 .982-.745 1.778-1.664 1.778s-1.664-.796-1.664-1.778.745-1.778 1.664-1.778 1.664.796 1.664 1.778zM24.699 29.616c0 .982-.745 1.778-1.664 1.778s-1.664-.796-1.664-1.778.745-1.778 1.664-1.778 1.664.796 1.664 1.778zM28.304 27.245c0 .982-.745 1.778-1.664 1.778s-1.664-.796-1.664-1.778.745-1.778 1.664-1.778 1.664.796 1.664 1.778zM32.464 24.578c0 .982-.745 1.778-1.664 1.778s-1.664-.796-1.664-1.778.745-1.778 1.664-1.778 1.664.796 1.664 1.778zM36.348 22.206c0 .982-.745 1.778-1.664 1.778s-1.664-.796-1.664-1.778.745-1.778 1.664-1.778 1.664.796 1.664 1.778zM20.261 27.838c0 .982-.745 1.778-1.664 1.778s-1.664-.796-1.664-1.778.745-1.778 1.664-1.778 1.664.796 1.664 1.778zM23.867 25.467c0 .982-.745 1.778-1.664 1.778s-1.664-.796-1.664-1.778.745-1.778 1.664-1.778 1.664.796 1.664 1.778zM28.027 22.8c0 .982-.745 1.778-1.664 1.778s-1.664-.796-1.664-1.778.745-1.778 1.664-1.778 1.664.796 1.664 1.778zM31.91 20.429c0 .982-.745 1.778-1.664 1.778s-1.664-.796-1.664-1.778.745-1.778 1.664-1.778 1.664.796 1.664 1.778zM21.926 21.614c0 .982-.745 1.778-1.664 1.778s-1.664-.796-1.664-1.778.745-1.778 1.664-1.778 1.664.796 1.664 1.778zM25.531 19.243c0 .982-.745 1.778-1.664 1.778s-1.664-.796-1.664-1.778.745-1.778 1.664-1.778 1.664.796 1.664 1.778zM29.692 16.575c0 .982-.745 1.778-1.664 1.778s-1.664-.796-1.664-1.778.745-1.778 1.664-1.778 1.664.796 1.664 1.778zM33.575 14.204c0 .982-.745 1.778-1.664 1.778s-1.664-.796-1.664-1.778.745-1.778 1.664-1.778 1.664.796 1.664 1.778zM21.926 11.24c0 .982-.745 1.778-1.664 1.778s-1.664-.796-1.664-1.778.745-1.778 1.664-1.778 1.664.796 1.664 1.778zM25.531 8.869c0 .982-.745 1.778-1.664 1.778s-1.664-.796-1.664-1.778.745-1.778 1.664-1.778 1.664.796 1.664 1.778zM29.692 6.202c0 .982-.745 1.778-1.664 1.778s-1.664-.796-1.664-1.778.745-1.778 1.664-1.778 1.664.796 1.664 1.778zM33.575 3.831c0 .982-.745 1.778-1.664 1.778s-1.664-.796-1.664-1.778.745-1.778 1.664-1.778 1.664.796 1.664 1.778zM21.093 16.872c0 .982-.745 1.778-1.664 1.778s-1.664-.796-1.664-1.778.745-1.778 1.664-1.778 1.664.796 1.664 1.778zM24.7 14.501c0 .982-.745 1.778-1.664 1.778s-1.664-.796-1.664-1.778.745-1.778 1.664-1.778 1.664.796 1.664 1.778zM28.859 11.833c0 .982-.745 1.778-1.664 1.778s-1.664-.796-1.664-1.778.745-1.778 1.664-1.778 1.664.796 1.664 1.778zM32.742 9.462c0 .982-.745 1.778-1.664 1.778s-1.664-.796-1.664-1.778.745-1.778 1.664-1.778 1.664.796 1.664 1.778zM3.62 8.276c0 .982-.745 1.778-1.664 1.778S.292 9.258.292 8.276s.745-1.778 1.664-1.778 1.664.796 1.664 1.778zM7.226 5.905c0 .982-.745 1.778-1.664 1.778s-1.664-.796-1.664-1.778.745-1.778 1.664-1.778 1.664.796 1.664 1.778zM11.386 3.238c0 .982-.745 1.778-1.664 1.778S8.058 4.22 8.058 3.238 8.803 1.46 9.722 1.46s1.664.796 1.664 1.778z"/><path fill="#f8d24e" style="fill:var(--color1,#f8d24e)" d="M9.445 10.055c.919 0 1.664-.796 1.664-1.778s-.745-1.778-1.664-1.778c-.919 0-1.664.796-1.664 1.778s.745 1.778 1.664 1.778z"/></symbol><symbol id="icon-ep_close" viewBox="0 0 32 32"><path d="M23.884 6.706 16 14.59 8.116 6.706a.995.995 0 0 0-1.38.031 1 1 0 0 0-.031 1.38l7.88 7.884-7.882 7.882a1.002 1.002 0 0 0-.018 1.427.998.998 0 0 0 1.427-.015l7.886-7.882 7.884 7.884a1 1 0 0 0 1.38-.03 1 1 0 0 0 .03-1.38l-7.884-7.884 7.884-7.886a1.002 1.002 0 0 0 .018-1.427.998.998 0 0 0-1.427.015v.002z"/></symbol><symbol id="icon-Group-127" viewBox="0 0 104 32"><path fill="#f8d24e" style="fill:var(--color1,#f8d24e)" d="M7.539 26.353c0 2.079-1.688 3.765-3.77 3.765s-3.77-1.686-3.77-3.765 1.688-3.765 3.77-3.765 3.77 1.686 3.77 3.765zM15.078 21.647c0 2.079-1.688 3.765-3.77 3.765s-3.77-1.686-3.77-3.765 1.688-3.765 3.77-3.765 3.77 1.686 3.77 3.765zM24.503 16c0 2.079-1.688 3.765-3.77 3.765s-3.77-1.686-3.77-3.765 1.688-3.765 3.77-3.765 3.77 1.686 3.77 3.765zM32.042 11.294c0 2.079-1.688 3.765-3.77 3.765s-3.77-1.686-3.77-3.765 1.688-3.765 3.77-3.765 3.77 1.686 3.77 3.765zM52.775 28.235c0 2.079-1.688 3.765-3.77 3.765s-3.77-1.686-3.77-3.765 1.688-3.765 3.77-3.765 3.77 1.686 3.77 3.765zM60.314 23.529c0 2.079-1.688 3.765-3.77 3.765s-3.77-1.686-3.77-3.765 1.688-3.765 3.77-3.765 3.77 1.686 3.77 3.765zM69.738 17.882c0 2.079-1.688 3.765-3.77 3.765s-3.77-1.686-3.77-3.765 1.688-3.765 3.77-3.765 3.77 1.686 3.77 3.765zM77.277 13.176c0 2.079-1.688 3.765-3.77 3.765s-3.77-1.686-3.77-3.765 1.688-3.765 3.77-3.765 3.77 1.686 3.77 3.765z"/><path fill="#f8d24e" style="fill:var(--color1,#f8d24e)" d="M69.738 25.412c0 2.079-1.477 3.765-3.298 3.765s-3.298-1.686-3.298-3.765 1.477-3.765 3.298-3.765 3.298 1.686 3.298 3.765zM77.277 20.706c0 2.079-1.477 3.765-3.298 3.765s-3.298-1.686-3.298-3.765 1.477-3.765 3.298-3.765 3.298 1.686 3.298 3.765zM85.759 16c0 2.079-1.477 3.765-3.298 3.765S79.163 18.079 79.163 16s1.477-3.765 3.298-3.765 3.298 1.686 3.298 3.765zM94.24 11.294c0 2.079-1.477 3.765-3.298 3.765s-3.298-1.686-3.298-3.765 1.477-3.765 3.298-3.765 3.298 1.686 3.298 3.765zM103.665 3.765c0 2.079-1.477 3.765-3.298 3.765s-3.298-1.686-3.298-3.765S98.546 0 100.367 0s3.298 1.686 3.298 3.765zM83.874 7.529c0 2.079-1.477 3.765-3.298 3.765s-3.298-1.686-3.298-3.765 1.477-3.765 3.298-3.765 3.298 1.686 3.298 3.765zM35.811 28.235c0 2.079-1.688 3.765-3.77 3.765s-3.77-1.686-3.77-3.765 1.688-3.765 3.77-3.765 3.77 1.686 3.77 3.765zM43.35 23.529c0 2.079-1.688 3.765-3.77 3.765s-3.77-1.686-3.77-3.765 1.688-3.765 3.77-3.765 3.77 1.686 3.77 3.765zM52.775 17.882c0 2.079-1.688 3.765-3.77 3.765s-3.77-1.686-3.77-3.765 1.688-3.765 3.77-3.765 3.77 1.686 3.77 3.765zM60.314 13.176c0 2.079-1.688 3.765-3.77 3.765s-3.77-1.686-3.77-3.765 1.688-3.765 3.77-3.765 3.77 1.686 3.77 3.765zM20.733 27.294c0 2.079-1.688 3.765-3.77 3.765s-3.77-1.686-3.77-3.765 1.688-3.765 3.77-3.765 3.77 1.686 3.77 3.765zM28.272 22.588c0 2.079-1.688 3.765-3.77 3.765s-3.77-1.686-3.77-3.765 1.688-3.765 3.77-3.765 3.77 1.686 3.77 3.765zM37.696 16.941c0 2.079-1.688 3.765-3.77 3.765s-3.77-1.686-3.77-3.765 1.688-3.765 3.77-3.765 3.77 1.686 3.77 3.765zM45.236 12.235c0 2.079-1.688 3.765-3.77 3.765s-3.77-1.686-3.77-3.765 1.688-3.765 3.77-3.765 3.77 1.686 3.77 3.765z"/></symbol></defs></svg>