<svg xmlns="http://www.w3.org/2000/svg" aria-hidden="true" style="position:absolute;width:0;height:0;overflow:hidden"><defs><symbol id="icon-dots" viewBox="0 0 205 32"><path d="M156.54 29.616c0 .982-.745 1.778-1.664 1.778s-1.664-.796-1.664-1.778.745-1.778 1.664-1.778 1.664.796 1.664 1.778zM160.146 27.245c0 .982-.745 1.778-1.664 1.778s-1.664-.796-1.664-1.778.745-1.778 1.664-1.778 1.664.796 1.664 1.778zM164.305 24.578c0 .982-.745 1.778-1.664 1.778s-1.664-.796-1.664-1.778.745-1.778 1.664-1.778 1.664.796 1.664 1.778zM168.189 22.206c0 .982-.745 1.778-1.664 1.778s-1.664-.796-1.664-1.778.745-1.778 1.664-1.778 1.664.796 1.664 1.778zM165.969 28.431c0 .982-.745 1.778-1.664 1.778s-1.664-.796-1.664-1.778.745-1.778 1.664-1.778 1.664.796 1.664 1.778zM169.575 26.06c0 .982-.745 1.778-1.664 1.778s-1.664-.796-1.664-1.778.745-1.778 1.664-1.778 1.664.796 1.664 1.778zM173.735 23.392c0 .982-.745 1.778-1.664 1.778s-1.664-.796-1.664-1.778.745-1.778 1.664-1.778 1.664.796 1.664 1.778zM177.619 21.021c0 .982-.745 1.778-1.664 1.778s-1.664-.796-1.664-1.778.745-1.778 1.664-1.778 1.664.796 1.664 1.778zM174.014 27.542c0 .982-.745 1.778-1.664 1.778s-1.664-.796-1.664-1.778.745-1.778 1.664-1.778 1.664.796 1.664 1.778zM177.619 25.171c0 .982-.745 1.778-1.664 1.778s-1.664-.796-1.664-1.778.745-1.778 1.664-1.778 1.664.796 1.664 1.778zM181.779 22.503c0 .982-.745 1.778-1.664 1.778s-1.664-.796-1.664-1.778.745-1.778 1.664-1.778 1.664.796 1.664 1.778zM185.662 20.132c0 .982-.745 1.778-1.664 1.778s-1.664-.796-1.664-1.778.745-1.778 1.664-1.778 1.664.796 1.664 1.778zM181.778 26.356c0 .982-.745 1.778-1.664 1.778s-1.664-.796-1.664-1.778.745-1.778 1.664-1.778 1.664.796 1.664 1.778zM185.383 23.985c0 .982-.745 1.778-1.664 1.778s-1.664-.796-1.664-1.778.745-1.778 1.664-1.778 1.664.796 1.664 1.778zM189.543 21.318c0 .982-.745 1.778-1.664 1.778s-1.664-.796-1.664-1.778.745-1.778 1.664-1.778 1.664.796 1.664 1.778zM193.427 18.947c0 .982-.745 1.778-1.664 1.778s-1.664-.796-1.664-1.778.745-1.778 1.664-1.778 1.664.796 1.664 1.778zM184.276 29.616c0 .982-.745 1.778-1.664 1.778s-1.664-.796-1.664-1.778.745-1.778 1.664-1.778 1.664.796 1.664 1.778zM187.882 27.245c0 .982-.745 1.778-1.664 1.778s-1.664-.796-1.664-1.778.745-1.778 1.664-1.778 1.664.796 1.664 1.778zM192.874 29.913c0 .982-.745 1.778-1.664 1.778s-1.664-.796-1.664-1.778.745-1.778 1.664-1.778 1.664.796 1.664 1.778zM192.042 24.578c0 .982-.745 1.778-1.664 1.778s-1.664-.796-1.664-1.778.745-1.778 1.664-1.778 1.664.796 1.664 1.778zM197.034 27.245c0 .982-.745 1.778-1.664 1.778s-1.664-.796-1.664-1.778.745-1.778 1.664-1.778 1.664.796 1.664 1.778zM200.918 29.913c0 .982-.745 1.778-1.664 1.778s-1.664-.796-1.664-1.778.745-1.778 1.664-1.778 1.664.796 1.664 1.778zM195.925 22.206c0 .982-.745 1.778-1.664 1.778s-1.664-.796-1.664-1.778.745-1.778 1.664-1.778 1.664.796 1.664 1.778zM200.918 24.874c0 .982-.745 1.778-1.664 1.778s-1.664-.796-1.664-1.778.745-1.778 1.664-1.778 1.664.796 1.664 1.778zM204.801 27.542c0 .982-.745 1.778-1.664 1.778s-1.664-.796-1.664-1.778.745-1.778 1.664-1.778 1.664.796 1.664 1.778zM139.622 10.055c0 .982-.745 1.778-1.664 1.778s-1.664-.796-1.664-1.778.745-1.778 1.664-1.778 1.664.796 1.664 1.778zM143.227 7.684c0 .982-.745 1.778-1.664 1.778s-1.664-.796-1.664-1.778.745-1.778 1.664-1.778 1.664.796 1.664 1.778zM147.388 5.016c0 .982-.745 1.778-1.664 1.778s-1.664-.796-1.664-1.778.745-1.778 1.664-1.778 1.664.796 1.664 1.778zM151.27 2.645c0 .982-.745 1.778-1.664 1.778s-1.664-.796-1.664-1.778.745-1.778 1.664-1.778 1.664.796 1.664 1.778zM132.687 9.758c0 .982-.745 1.778-1.664 1.778s-1.664-.796-1.664-1.778.745-1.778 1.664-1.778 1.664.796 1.664 1.778zM136.293 7.387c0 .982-.745 1.778-1.664 1.778s-1.664-.796-1.664-1.778.745-1.778 1.664-1.778 1.664.796 1.664 1.778zM140.453 4.72c0 .982-.745 1.778-1.664 1.778s-1.664-.796-1.664-1.778.745-1.778 1.664-1.778 1.664.796 1.664 1.778zM144.335 2.349c0 .982-.745 1.778-1.664 1.778s-1.664-.796-1.664-1.778.745-1.778 1.664-1.778 1.664.796 1.664 1.778zM148.219 29.616c0 .982-.745 1.778-1.664 1.778s-1.664-.796-1.664-1.778.745-1.778 1.664-1.778 1.664.796 1.664 1.778zM151.824 27.245c0 .982-.745 1.778-1.664 1.778s-1.664-.796-1.664-1.778.745-1.778 1.664-1.778 1.664.796 1.664 1.778zM155.984 24.578c0 .982-.745 1.778-1.664 1.778s-1.664-.796-1.664-1.778.745-1.778 1.664-1.778 1.664.796 1.664 1.778zM159.868 22.206c0 .982-.745 1.778-1.664 1.778s-1.664-.796-1.664-1.778.745-1.778 1.664-1.778 1.664.796 1.664 1.778zM143.781 27.838c0 .982-.745 1.778-1.664 1.778s-1.664-.796-1.664-1.778.745-1.778 1.664-1.778 1.664.796 1.664 1.778zM147.387 25.467c0 .982-.745 1.778-1.664 1.778s-1.664-.796-1.664-1.778.745-1.778 1.664-1.778 1.664.796 1.664 1.778zM151.547 22.8c0 .982-.745 1.778-1.664 1.778s-1.664-.796-1.664-1.778.745-1.778 1.664-1.778 1.664.796 1.664 1.778zM155.43 20.429c0 .982-.745 1.778-1.664 1.778s-1.664-.796-1.664-1.778.745-1.778 1.664-1.778 1.664.796 1.664 1.778zM145.446 21.614c0 .982-.745 1.778-1.664 1.778s-1.664-.796-1.664-1.778.745-1.778 1.664-1.778 1.664.796 1.664 1.778zM149.051 19.243c0 .982-.745 1.778-1.664 1.778s-1.664-.796-1.664-1.778.745-1.778 1.664-1.778 1.664.796 1.664 1.778zM153.212 16.575c0 .982-.745 1.778-1.664 1.778s-1.664-.796-1.664-1.778.745-1.778 1.664-1.778 1.664.796 1.664 1.778zM157.095 14.204c0 .982-.745 1.778-1.664 1.778s-1.664-.796-1.664-1.778.745-1.778 1.664-1.778 1.664.796 1.664 1.778zM145.446 11.24c0 .982-.745 1.778-1.664 1.778s-1.664-.796-1.664-1.778.745-1.778 1.664-1.778 1.664.796 1.664 1.778zM149.051 8.869c0 .982-.745 1.778-1.664 1.778s-1.664-.796-1.664-1.778.745-1.778 1.664-1.778 1.664.796 1.664 1.778zM153.212 6.202c0 .982-.745 1.778-1.664 1.778s-1.664-.796-1.664-1.778.745-1.778 1.664-1.778 1.664.796 1.664 1.778zM157.095 3.831c0 .982-.745 1.778-1.664 1.778s-1.664-.796-1.664-1.778.745-1.778 1.664-1.778 1.664.796 1.664 1.778zM144.613 16.872c0 .982-.745 1.778-1.664 1.778s-1.664-.796-1.664-1.778.745-1.778 1.664-1.778 1.664.796 1.664 1.778zM148.22 14.501c0 .982-.745 1.778-1.664 1.778s-1.664-.796-1.664-1.778.745-1.778 1.664-1.778 1.664.796 1.664 1.778zM152.379 11.833c0 .982-.745 1.778-1.664 1.778s-1.664-.796-1.664-1.778.745-1.778 1.664-1.778 1.664.796 1.664 1.778zM156.262 9.462c0 .982-.745 1.778-1.664 1.778s-1.664-.796-1.664-1.778.745-1.778 1.664-1.778 1.664.796 1.664 1.778zM127.14 8.276c0 .982-.745 1.778-1.664 1.778s-1.664-.796-1.664-1.778.745-1.778 1.664-1.778 1.664.796 1.664 1.778zM130.746 5.905c0 .982-.745 1.778-1.664 1.778s-1.664-.796-1.664-1.778.745-1.778 1.664-1.778 1.664.796 1.664 1.778zM134.906 3.238c0 .982-.745 1.778-1.664 1.778s-1.664-.796-1.664-1.778.745-1.778 1.664-1.778 1.664.796 1.664 1.778z"/><path d="M132.964 10.055c.919 0 1.665-.796 1.665-1.778s-.746-1.778-1.665-1.778-1.664.796-1.664 1.778.745 1.778 1.664 1.778zM56.441 21.475c.141.985-.491 1.906-1.413 2.057s-1.784-.525-1.925-1.51c-.141-.985.491-1.906 1.413-2.057s1.784.525 1.925 1.51zM59.717 18.504c.141.985-.491 1.906-1.413 2.057s-1.784-.525-1.925-1.51c-.141-.985.491-1.906 1.413-2.057s1.784.525 1.925 1.51zM63.506 15.144c.141.985-.491 1.906-1.413 2.057s-1.784-.525-1.925-1.51c-.141-.985.491-1.906 1.413-2.057s1.784.525 1.925 1.51zM67.06 12.128c.141.985-.491 1.906-1.413 2.057s-1.784-.525-1.925-1.51c-.141-.985.491-1.906 1.413-2.057s1.784.525 1.925 1.51zM3.481 21.473c0 .997-.779 1.805-1.741 1.805s-1.741-.808-1.741-1.805c0-.997.779-1.805 1.741-1.805s1.741.808 1.741 1.805zM7.252 19.067c0 .997-.779 1.805-1.741 1.805s-1.741-.808-1.741-1.805c0-.997.779-1.805 1.741-1.805s1.741.808 1.741 1.805zM11.605 16.36c0 .997-.779 1.805-1.741 1.805s-1.741-.808-1.741-1.805c0-.997.779-1.805 1.741-1.805s1.741.808 1.741 1.805zM15.666 13.953c0 .997-.779 1.805-1.741 1.805s-1.741-.808-1.741-1.805c0-.997.779-1.805 1.741-1.805s1.741.808 1.741 1.805zM5.223 25.984c0 .997-.779 1.805-1.741 1.805s-1.741-.808-1.741-1.805c0-.997.779-1.805 1.741-1.805s1.741.808 1.741 1.805zM8.994 23.578c0 .997-.779 1.805-1.741 1.805s-1.741-.808-1.741-1.805c0-.997.779-1.805 1.741-1.805s1.741.808 1.741 1.805zM13.346 20.871c0 .997-.779 1.805-1.741 1.805s-1.741-.808-1.741-1.805c0-.997.779-1.805 1.741-1.805s1.741.808 1.741 1.805zM17.407 18.465c0 .997-.779 1.805-1.741 1.805s-1.741-.808-1.741-1.805c0-.997.779-1.805 1.741-1.805s1.741.808 1.741 1.805zM9.573 28.39c0 .997-.779 1.805-1.741 1.805s-1.741-.808-1.741-1.805c0-.997.779-1.805 1.741-1.805s1.741.808 1.741 1.805zM13.345 25.984c0 .997-.779 1.805-1.741 1.805s-1.741-.808-1.741-1.805c0-.997.779-1.805 1.741-1.805s1.741.808 1.741 1.805zM17.696 23.277c0 .997-.779 1.805-1.741 1.805s-1.741-.808-1.741-1.805c0-.997.779-1.805 1.741-1.805s1.741.808 1.741 1.805zM21.758 20.871c0 .997-.779 1.805-1.741 1.805s-1.741-.808-1.741-1.805c0-.997.779-1.805 1.741-1.805s1.741.808 1.741 1.805zM14.504 29.895c0 .997-.779 1.805-1.741 1.805s-1.741-.808-1.741-1.805c0-.997.779-1.805 1.741-1.805s1.741.808 1.741 1.805zM18.276 27.488c0 .997-.779 1.805-1.741 1.805s-1.741-.808-1.741-1.805c0-.997.779-1.805 1.741-1.805s1.741.808 1.741 1.805zM22.629 24.781c0 .997-.779 1.805-1.741 1.805s-1.741-.808-1.741-1.805c0-.997.779-1.805 1.741-1.805s1.741.808 1.741 1.805zM26.689 22.375c0 .997-.779 1.805-1.741 1.805s-1.741-.808-1.741-1.805c0-.997.779-1.805 1.741-1.805s1.741.808 1.741 1.805z"/><path d="M20.888 30.196c0 .997-.779 1.805-1.741 1.805s-1.741-.808-1.741-1.805c0-.997.779-1.805 1.741-1.805s1.741.808 1.741 1.805zM24.659 27.789c0 .997-.779 1.805-1.741 1.805s-1.741-.808-1.741-1.805c0-.997.779-1.805 1.741-1.805s1.741.808 1.741 1.805zM29.011 25.082c0 .997-.779 1.805-1.741 1.805s-1.741-.808-1.741-1.805c0-.997.779-1.805 1.741-1.805s1.741.808 1.741 1.805zM33.072 22.676c0 .997-.779 1.805-1.741 1.805s-1.741-.808-1.741-1.805c0-.997.779-1.805 1.741-1.805s1.741.808 1.741 1.805zM28.431 30.195c0 .997-.779 1.805-1.741 1.805s-1.741-.808-1.741-1.805c0-.997.779-1.805 1.741-1.805s1.741.808 1.741 1.805zM32.202 27.789c0 .997-.779 1.805-1.741 1.805s-1.741-.808-1.741-1.805c0-.997.779-1.805 1.741-1.805s1.741.808 1.741 1.805zM36.554 25.082c0 .997-.779 1.805-1.741 1.805s-1.741-.808-1.741-1.805c0-.997.779-1.805 1.741-1.805s1.741.808 1.741 1.805zM40.616 22.676c0 .997-.779 1.805-1.741 1.805s-1.741-.808-1.741-1.805c0-.997.779-1.805 1.741-1.805s1.741.808 1.741 1.805z"/><path d="M34.812 29.895c0 .997-.779 1.805-1.741 1.805s-1.741-.808-1.741-1.805c0-.997.779-1.805 1.741-1.805s1.741.808 1.741 1.805zM38.583 27.488c0 .997-.779 1.805-1.741 1.805s-1.741-.808-1.741-1.805c0-.997.779-1.805 1.741-1.805s1.741.808 1.741 1.805zM42.936 24.781c0 .997-.779 1.805-1.741 1.805s-1.741-.808-1.741-1.805c0-.997.779-1.805 1.741-1.805s1.741.808 1.741 1.805zM46.996 22.375c0 .997-.779 1.805-1.741 1.805s-1.741-.808-1.741-1.805c0-.997.779-1.805 1.741-1.805s1.741.808 1.741 1.805zM42.064 29.594c0 .997-.779 1.805-1.741 1.805s-1.741-.808-1.741-1.805c0-.997.779-1.805 1.741-1.805s1.741.808 1.741 1.805zM45.836 27.187c0 .997-.779 1.805-1.741 1.805s-1.741-.808-1.741-1.805c0-.997.779-1.805 1.741-1.805s1.741.808 1.741 1.805zM50.188 24.481c0 .997-.779 1.805-1.741 1.805s-1.741-.808-1.741-1.805c0-.997.779-1.805 1.741-1.805s1.741.808 1.741 1.805zM54.249 22.074c0 .997-.779 1.805-1.741 1.805s-1.741-.808-1.741-1.805c0-.997.779-1.805 1.741-1.805s1.741.808 1.741 1.805z"/><path d="M48.737 21.773c0 .997-.779 1.805-1.741 1.805s-1.741-.808-1.741-1.805c0-.997.779-1.805 1.741-1.805s1.741.808 1.741 1.805zM52.508 19.367c0 .997-.779 1.805-1.741 1.805s-1.741-.808-1.741-1.805c0-.997.779-1.805 1.741-1.805s1.741.808 1.741 1.805zM56.86 16.66c0 .997-.779 1.805-1.741 1.805s-1.741-.808-1.741-1.805c0-.997.779-1.805 1.741-1.805s1.741.808 1.741 1.805zM60.921 14.254c0 .997-.779 1.805-1.741 1.805s-1.741-.808-1.741-1.805c0-.997.779-1.805 1.741-1.805s1.741.808 1.741 1.805z"/></symbol><symbol id="icon-logo" viewBox="0 0 34 32"><path d="M17.413 14.169c1.635-4.384-1.751-6.784-3.995-8.362-.429-.322-.858-.623-1.206-.899-.621-.518-1.079-1.201-1.318-1.969s-.251-1.587-.033-2.361a.45.45 0 0 0-.133-.457c-.062-.057-.139-.096-.223-.112s-.169-.01-.249.018a7.584 7.584 0 0 0-2.081 1.225c-.598.456-1.083 1.041-1.417 1.711s-.508 1.406-.51 2.152c-.423.33-.797.716-1.111 1.149a4.178 4.178 0 0 0-.819 2.693c-.687.624-1.199 1.413-1.486 2.291s-.338 1.814-.149 2.717c-.273.163-.485.411-.602.704s-.134.617-.047.921c.087.304.272.571.527.761s.567.291.886.289h.03v2.493c0 .253.102.496.283.675s.427.279.683.279h.751L6.417 30.56c.025.233.137.449.314.605s.406.243.643.243h5.089c.238-.001.467-.087.644-.244s.29-.372.317-.605l1.223-10.473h.751c.256 0 .502-.1.683-.279s.283-.422.283-.675v-2.493h.03c.388 0 .76-.152 1.035-.423s.428-.639.428-1.022a1.409 1.409 0 0 0-.429-1.03l-.013.004zM6.399 6.214c.618 2.294 3.003 3.197 5.179 4.003a.473.473 0 0 0 .568-.059.458.458 0 0 0-.051-.71.477.477 0 0 0-.187-.079c-2.343-.878-4.552-1.696-4.72-4.041-.039-.645.083-1.289.356-1.875s.689-1.097 1.21-1.487a6.97 6.97 0 0 1 1.047-.712 5.411 5.411 0 0 0 0 .882c.05.672.236 1.327.547 1.927s.741 1.131 1.264 1.563c.356.301.798.611 1.287.941 1.128.801 2.411 1.696 3.226 2.909a4.49 4.49 0 0 1 .467 4.304h-1.896c-3.909 0-8.401-1.069-9.289-4.062-.176-.616-.175-1.268.004-1.883s.528-1.169 1.008-1.598l-.021-.021zm3.518 14.455 1.433 1.416-1.433 1.416-1.433-1.425 1.433-1.408zm3.287 3.719-1.184 1.17-1.433-1.416 1.433-1.412 1.244 1.225-.06.433zm-3.287 3.248L8.484 26.22l1.433-1.416 1.433 1.416-1.433 1.416zm-.656-3.486-1.433 1.416-1.193-1.179-.051-.424 1.244-1.225 1.433 1.412zm-2.094 2.069-.287.284-.073-.644.36.36zm-.15 1.451.811-.801 1.575 1.569a.72.72 0 0 0 .03.093H7.116l-.099-.861zm4.994-.802.811.801-.099.848h-2.381l1.669-1.649zm.944-.364-.287-.284.365-.36-.077.644zm.429-3.706-.717-.721.91-.899-.193 1.62zm-1.377-1.366-1.36-1.34h2.72l-1.36 1.34zm-4.183 0-1.36-1.34h2.72l-1.36 1.34zm4.633 9.057H7.373c-.008-.001-.015-.004-.02-.01s-.009-.012-.01-.02l-.12-1.018h5.389l-.116 1.018c-.001.008-.005.016-.011.021s-.014.008-.023.008h-.004zm3.935-14.773h-1.493a.48.48 0 0 0-.359.118.456.456 0 0 0-.113.529.456.456 0 0 0 .28.251c.062.02.127.028.192.021h.532v2.493c-.001.008-.005.016-.011.021s-.014.008-.023.008H4.426c-.008 0-.017-.003-.023-.008s-.01-.013-.011-.021v-2.493h8.5a.468.468 0 0 0 .423-.46.456.456 0 0 0-.122-.311.47.47 0 0 0-.301-.149H3.453a.536.536 0 0 1-.535-.311.518.518 0 0 1 .128-.6.537.537 0 0 1 .407-.135h.974a.468.468 0 0 0 .423-.46c0-.115-.043-.226-.122-.311s-.186-.138-.301-.149h-.858c-.123-.645-.103-1.309.059-1.946s.461-1.232.877-1.743c.3.924 1.073 2.188 3.003 3.193 1.815.937 4.218 1.416 7.139 1.416h1.716a.536.536 0 0 1 .535.311.518.518 0 0 1-.128.6.537.537 0 0 1-.407.135h.03zM19.817 27.915l-.343.527.007.004.337-.531zm3.697.178.629-.014-.016-.728-.718.122.105.62zm.043 1.935.16.608.48-.126-.011-.496-.629.014zm-4.852.092.141-.613-.004-.001-.137.614zm-2.395-1.069.407-.48-.001-.001-.406.48zm-.866-1.965.629.003v-.003h-.629zm.301-1.376-.564-.278v.001l.565.277zm1.929-1.646.223.588.002-.001-.225-.587zm6.178-.159.627.049.041-.531-.517-.128-.151.61zm-.154 1.971-.117.618.69.131.055-.7-.627-.049zm-1.676-.807c-.944 0-1.737.101-2.317.356a1.896 1.896 0 0 0-.764.574c-.203.268-.3.58-.3.909h1.258c0-.074.018-.115.044-.149.033-.043.106-.111.268-.182.338-.148.92-.249 1.81-.249V25.07zm-3.38 1.839c0 .647.29 1.181.832 1.534l.687-1.054a.51.51 0 0 1-.261-.48h-1.258zm.839 1.538c.514.325 1.191.448 1.952.448v-1.258c-.656 0-1.056-.111-1.279-.253l-.673 1.063zm1.951.448c.746 0 1.476-.06 2.187-.181l-.21-1.24c-.639.108-1.298.163-1.977.163v1.258zm1.453-.787.043 1.934 1.257-.028-.043-1.934-1.257.028zm.512 1.313a9.355 9.355 0 0 1-2.383.286v1.258c.964 0 1.866-.108 2.703-.328l-.32-1.216zm-2.382.286c-.888 0-1.607-.07-2.168-.199l-.282 1.226c.684.157 1.504.231 2.45.231v-1.258zm-2.172-.2c-.6-.134-1.034-.277-1.323-.418l-.552 1.13c.415.203.956.371 1.6.515l.275-1.227zm-1.323-.418a3.836 3.836 0 0 1-.803-.516l-.814.959c.314.267.67.495 1.064.687l.552-1.13zm-.804-.517c-.427-.361-.646-.833-.643-1.482l-1.258-.006c-.005.989.353 1.827 1.089 2.449l.812-.961zm-.643-1.485c0-.423.083-.785.237-1.099l-1.129-.553a3.718 3.718 0 0 0-.365 1.652h1.258zm.237-1.098c.286-.582.791-1.033 1.587-1.336l-.446-1.176c-1.038.394-1.819 1.04-2.27 1.956l1.129.555zm1.589-1.336c.837-.321 1.77-.486 2.808-.486v-1.258c-1.173 0-2.262.187-3.259.57l.451 1.174zm2.809-.487c1.059 0 2.056.118 2.993.35l.303-1.221a13.646 13.646 0 0 0-3.296-.387v1.258zm2.517-.309-.154 1.971 1.254.098.154-1.971-1.254-.098zm.591 1.402a9.734 9.734 0 0 0-1.794-.189v1.258c.442 0 .961.054 1.56.167l.234-1.236zm6.136 1.005-.003.629.639.004-.007-.639-.629.007zm-.271-.817-.428.461.005.005.422-.466zm-1.566.062.436.454.005-.005-.44-.449zm-.38.743-.62-.102-.119.727.736.004.003-.629zm4.624 3.353.38.501.226-.171.021-.283-.627-.047zm-1.357.504-.135-.614-.004.001.139.613zm-4.717-.172-.214.591.005.002.209-.593zm-1.074-.571-.39.493.008.006.383-.499zm-.719-.903-.564.279.001.003.563-.281zm.737-3.814.418.47-.419-.469zm5.748-.682.252-.576-.006-.003-.246.579zm1.444 1.327-.566.275.002.004.564-.278zm.245 1.099.627.046.002-.023v-.023h-.629zm-.073 1.013-.003.629.588.003.043-.586-.627-.046zm-4.981-.024.003-.629-.82-.004.209.793.608-.16zm.712.878-.309.547.003.001.307-.549zm3.82-.215v-.629h-.126l-.116.048.242.581zm.332 0 .627.047.051-.676h-.678v.629zm-1.895-1.788c-.005-.455-.109-.943-.477-1.276l-.845.932c-.007-.007.007.001.025.056.019.058.037.154.039.302l1.258-.013zm-.472-1.271c-.33-.306-.763-.408-1.189-.408v1.258c.245 0 .32.059.334.071l.856-.922zm-1.189-.407c-.468 0-.904.147-1.245.481l.88.898c.069-.067.169-.121.364-.121v-1.258zm-1.24.476c-.31.297-.496.671-.566 1.095l1.241.204a.66.66 0 0 1 .196-.391l-.871-.907zm.051 1.826 2.217.012.007-1.258-2.217-.012-.007 1.258zm4.248 2.223c-.138.105-.474.25-1.113.391l.27 1.228c.664-.146 1.232-.336 1.602-.617l-.76-1.002zm-1.116.391a7.95 7.95 0 0 1-1.759.206v1.258c.665 0 1.344-.08 2.037-.237l-.278-1.227zm-1.759.206c-.593 0-1.081-.028-1.47-.08l-.168 1.247c.462.062 1.01.092 1.638.092v-1.258zm-1.47-.081a5.637 5.637 0 0 1-1.14-.277l-.419 1.186c.457.161.921.274 1.391.337l.168-1.247zm-1.134-.274a3.328 3.328 0 0 1-.906-.479l-.765.998c.358.275.775.494 1.243.663l.429-1.182zm-.899-.474a2.003 2.003 0 0 1-.546-.691l-1.125.563c.221.443.517.819.891 1.115l.781-.986zm-.545-.688c-.132-.268-.211-.612-.211-1.054h-1.258c0 .59.105 1.134.342 1.611l1.127-.558zm-.212-1.054c0-.442.08-.833.231-1.181l-1.154-.501a4.184 4.184 0 0 0-.334 1.681h1.258zm.231-1.181c.159-.365.353-.636.572-.831l-.836-.939a3.601 3.601 0 0 0-.89 1.269l1.154.501zm.572-.831c.676-.603 1.707-.952 3.193-.952v-1.258c-1.667 0-3.043.392-4.03 1.271l.837.939zm3.193-.952a4.79 4.79 0 0 1 1.892.38l.491-1.158a6.05 6.05 0 0 0-2.383-.48v1.258zm1.886.378c.556.243.916.587 1.129 1.025l1.131-.55c-.36-.741-.963-1.281-1.757-1.628l-.503 1.153zm1.131 1.028c.117.238.181.508.181.821h1.258c0-.489-.101-.952-.311-1.378l-1.128.557zm.182.775-.074 1.013 1.254.091.074-1.013-1.254-.091zm.557.431-4.981-.025-.006 1.258 4.981.025.006-1.258zm-5.592.764c.147.558.507.98 1.011 1.265l.619-1.095c-.249-.141-.364-.303-.414-.491l-1.216.321zm1.013 1.267c.51.285 1.148.399 1.861.399v-1.258c-.597 0-.995-.099-1.247-.239l-.614 1.098zm1.861.399c.765 0 1.605-.207 2.508-.583l-.483-1.161c-.809.337-1.479.486-2.024.486v1.258zm2.266-.534h.332v-1.258h-.332v1.258zm-.295-.676-.117 1.56 1.254.094.117-1.56-1.254-.094z"/></symbol></defs></svg>